<svg width="64" height="40" viewBox="0 0 64 40" fill="none" xmlns="http://www.w3.org/2000/svg">
<path d="M23.9251 19.4043C26.2695 20.0473 28.0759 21.2009 29.3442 22.8652C30.651 24.5295 31.3044 26.6099 31.3044 29.1064C31.3044 32.5485 30.0937 35.234 27.6724 37.1631C25.2895 39.0544 21.9457 40 17.6411 40H2.94019C2.01778 40 1.28754 39.7541 0.749462 39.2624C0.249822 38.7329 4.26265e-06 38.0331 4.26265e-06 37.1631V2.83688C4.26265e-06 1.9669 0.249822 1.28605 0.749462 0.794326C1.28754 0.264775 2.01778 0 2.94019 0H17.007C21.1963 0 24.4631 0.926714 26.8076 2.78014C29.1905 4.59574 30.3819 7.14894 30.3819 10.4397C30.3819 12.5579 29.8054 14.3924 28.6524 15.9433C27.5378 17.4941 25.9621 18.6478 23.9251 19.4043ZM6.45688 17.305H16.0846C21.7728 17.305 24.6169 15.1868 24.6169 10.9504C24.6169 8.83215 23.9058 7.26241 22.4838 6.24113C21.1002 5.21986 18.9671 4.70922 16.0846 4.70922H6.45688V17.305ZM17.007 35.2908C19.9664 35.2908 22.1379 34.7612 23.5215 33.7021C24.9051 32.643 25.5969 30.9976 25.5969 28.766C25.5969 26.4965 24.8859 24.8132 23.4639 23.7163C22.0802 22.5816 19.9279 22.0142 17.007 22.0142H6.45688V35.2908H17.007Z" fill="#F2F0EB"/>
<path d="M49.6677 40C45.9322 40 42.6774 39.2048 39.9035 37.6144C37.1296 35.9871 35.0029 33.6755 33.5235 30.6796C32.0441 27.6468 31.3043 24.0777 31.3043 19.9723C31.3043 15.9038 32.0441 12.3717 33.5235 9.37587C35.0029 6.34304 37.1296 4.03144 39.9035 2.44106C42.6774 0.813685 45.9322 0 49.6677 0C52.1088 0 54.4204 0.38835 56.6025 1.16505C58.7847 1.90476 60.6895 2.99584 62.3168 4.43828C63.0196 4.99307 63.3709 5.73278 63.3709 6.65742C63.3709 7.32316 63.186 7.89644 62.8161 8.37725C62.4463 8.82108 62.0025 9.043 61.4847 9.043C60.8559 9.043 60.2456 8.80259 59.6539 8.32178C57.8785 6.99029 56.2512 6.06565 54.7718 5.54785C53.3293 4.99307 51.6834 4.71567 49.8342 4.71567C45.7657 4.71567 42.6405 6.02866 40.4583 8.65465C38.2761 11.2806 37.1851 15.0532 37.1851 19.9723C37.1851 24.9283 38.2761 28.7194 40.4583 31.3454C42.6405 33.9713 45.7657 35.2843 49.8342 35.2843C51.6095 35.2843 53.2184 35.0069 54.6608 34.4522C56.1402 33.8974 57.8046 32.9727 59.6539 31.6782C60.3936 31.1974 61.0038 30.957 61.4847 30.957C62.0025 30.957 62.4463 31.1974 62.8161 31.6782C63.186 32.1221 63.3709 32.6768 63.3709 33.3426C63.3709 34.2672 63.0196 35.0069 62.3168 35.5617C60.6895 37.0042 58.7847 38.1137 56.6025 38.8904C54.4204 39.6301 52.1088 40 49.6677 40Z" fill="#F2F0EB"/>
<path d="M49.8643 26.0114C50.1996 26.0419 50.4358 26.1333 50.5729 26.2857C50.7253 26.4229 50.8015 26.621 50.8015 26.88C50.8015 27.1848 50.6796 27.421 50.4358 27.5886C50.2072 27.741 49.8643 27.8019 49.4072 27.7714L48.7901 27.7257C47.5558 27.6343 46.6339 27.261 46.0243 26.6057C45.4148 25.9352 45.1101 24.9524 45.1101 23.6571V18.2857H43.7386C43.0681 18.2857 42.7329 17.9886 42.7329 17.3943C42.7329 17.12 42.8167 16.9067 42.9843 16.7543C43.1672 16.5867 43.4186 16.5029 43.7386 16.5029H45.1101V14.1486C45.1101 13.7981 45.2091 13.5238 45.4072 13.3257C45.6205 13.1276 45.9024 13.0286 46.2529 13.0286C46.6034 13.0286 46.8853 13.1276 47.0986 13.3257C47.312 13.5238 47.4186 13.7981 47.4186 14.1486V16.5029H49.6815C50.0015 16.5029 50.2453 16.5867 50.4129 16.7543C50.5958 16.9067 50.6872 17.12 50.6872 17.3943C50.6872 17.6838 50.5958 17.9048 50.4129 18.0571C50.2453 18.2095 50.0015 18.2857 49.6815 18.2857H47.4186V23.8171C47.4186 24.5333 47.5634 25.0591 47.8529 25.3943C48.1577 25.7295 48.6148 25.92 49.2243 25.9657L49.8643 26.0114Z" fill="#F2F0EB"/>
<path d="M58.3109 16.2743C59.0424 16.2286 59.4081 16.541 59.4081 17.2114C59.4081 17.5467 59.3243 17.7981 59.1567 17.9657C58.989 18.1333 58.6995 18.2324 58.2881 18.2629L57.6024 18.3314C56.6424 18.4229 55.9262 18.7581 55.4538 19.3371C54.9967 19.9162 54.7681 20.6171 54.7681 21.44V26.6743C54.7681 27.04 54.6614 27.3143 54.4481 27.4971C54.2348 27.68 53.9605 27.7714 53.6252 27.7714C53.29 27.7714 53.0081 27.68 52.7795 27.4971C52.5662 27.3143 52.4595 27.04 52.4595 26.6743V17.3714C52.4595 17.021 52.5662 16.7543 52.7795 16.5714C53.0081 16.3733 53.29 16.2743 53.6252 16.2743C53.93 16.2743 54.1814 16.3733 54.3795 16.5714C54.5929 16.7543 54.6995 17.0133 54.6995 17.3486V18.4457C55.0043 17.7752 55.4462 17.2648 56.0252 16.9143C56.6043 16.5638 57.2595 16.3581 57.9909 16.2971L58.3109 16.2743Z" fill="#F2F0EB"/>
<path d="M61.9958 27.7714C61.6605 27.7714 61.3786 27.68 61.1501 27.4971C60.9367 27.3143 60.8301 27.04 60.8301 26.6743V12.5486C60.8301 12.1829 60.9367 11.9086 61.1501 11.7257C61.3786 11.5276 61.6605 11.4286 61.9958 11.4286C62.331 11.4286 62.6053 11.5276 62.8186 11.7257C63.032 11.9086 63.1386 12.1829 63.1386 12.5486V26.6743C63.1386 27.04 63.032 27.3143 62.8186 27.4971C62.6053 27.68 62.331 27.7714 61.9958 27.7714Z" fill="#F2F0EB"/>
</svg>
